<svg width="85" height="30" viewBox="0 0 85 30" fill="none" xmlns="http://www.w3.org/2000/svg">
<path d="M24.963 27.083L13.7727 30L2.58228 27.083L0 0H27.5456L24.963 27.083Z" fill="url(#paint0_linear)"/>
<path d="M13.7727 2.19365V27.6735L13.7975 27.6802L22.6738 25.3195L24.7226 2.19365H13.7727Z" fill="url(#paint1_linear)"/>
<path d="M6.96558 23.523L10.8945 23.523L10.9396 10.2775L13.7958 10.2775L16.1781 10.4304L17.4875 14.9291L16.3586 19.2537L13.7958 19.5344L10.9076 19.5343L10.8945 23.523L13.7958 23.523L19.3842 23.0099L21.8679 14.8854L19.4293 6.80498L13.7958 6.28072H6.96558L6.96558 23.523Z" fill="url(#paint2_linear)"/>
<path d="M34.8066 24V6.22656H40.0557C41.6263 6.22656 43.0179 6.5765 44.2305 7.27637C45.4512 7.97624 46.3952 8.96908 47.0625 10.2549C47.7298 11.5407 48.0635 13.0137 48.0635 14.6738V15.5649C48.0635 17.2495 47.7257 18.7306 47.0503 20.0083C46.383 21.286 45.4268 22.2707 44.1816 22.9624C42.9447 23.6541 41.5246 24 39.9214 24H34.8066ZM37.895 8.7168V21.5342H39.9092C41.5286 21.5342 42.7697 21.0296 43.6323 20.0205C44.5031 19.0033 44.9466 17.5465 44.9629 15.6504V14.6616C44.9629 12.7329 44.5438 11.2599 43.7056 10.2427C42.8674 9.22542 41.6507 8.7168 40.0557 8.7168H37.895ZM58.7446 24C58.6144 23.7477 58.5005 23.3368 58.4028 22.7671C57.4588 23.7518 56.3032 24.2441 54.936 24.2441C53.6095 24.2441 52.5272 23.8657 51.689 23.1089C50.8507 22.3521 50.4316 21.4162 50.4316 20.3013C50.4316 18.8934 50.9525 17.8151 51.9941 17.0664C53.0439 16.3096 54.5413 15.9312 56.4863 15.9312H58.3052V15.0645C58.3052 14.3809 58.1139 13.8356 57.7314 13.4287C57.349 13.0137 56.7671 12.8062 55.9858 12.8062C55.3104 12.8062 54.757 12.9771 54.3257 13.3188C53.8944 13.6525 53.6787 14.0798 53.6787 14.6006H50.7124C50.7124 13.8763 50.9525 13.2008 51.4326 12.5742C51.9128 11.9395 52.5638 11.443 53.3857 11.085C54.2158 10.7269 55.1395 10.5479 56.1567 10.5479C57.703 10.5479 58.9359 10.9385 59.8555 11.7197C60.7751 12.4928 61.2471 13.5833 61.2715 14.9912V20.9482C61.2715 22.1364 61.4383 23.0845 61.772 23.7925V24H58.7446ZM55.4854 21.8638C56.0713 21.8638 56.6206 21.7214 57.1333 21.4365C57.6541 21.1517 58.0448 20.7692 58.3052 20.2891V17.7988H56.7061C55.6074 17.7988 54.7814 17.9901 54.228 18.3726C53.6746 18.755 53.3979 19.2962 53.3979 19.9961C53.3979 20.5658 53.5851 21.0215 53.9595 21.3633C54.342 21.6969 54.8506 21.8638 55.4854 21.8638ZM67.1309 10.792L67.2163 12.3179C68.1929 11.1379 69.4746 10.5479 71.0615 10.5479C73.8122 10.5479 75.2119 12.1226 75.2607 15.272V24H72.2944V15.4429C72.2944 14.6047 72.1113 13.9862 71.7451 13.5874C71.387 13.1805 70.797 12.9771 69.9751 12.9771C68.7788 12.9771 67.8877 13.5182 67.3018 14.6006V24H64.3354V10.792H67.1309Z" fill="black"/>
<defs>
<linearGradient id="paint0_linear" x1="2.82609" y1="27.2188" x2="26.6257" y2="-0.752909" gradientUnits="userSpaceOnUse">
<stop offset="0.138618" stop-color="#11CFE3"/>
<stop offset="1" stop-color="#EB0DFD"/>
</linearGradient>
<linearGradient id="paint1_linear" x1="13.7729" y1="27.0407" x2="23.9907" y2="2.10467" gradientUnits="userSpaceOnUse">
<stop offset="0.24335" stop-color="#12CEE4"/>
<stop offset="0.757432" stop-color="#E612FD"/>
</linearGradient>
<linearGradient id="paint2_linear" x1="6.96558" y1="14.9292" x2="21.8679" y2="14.9292" gradientUnits="userSpaceOnUse">
<stop offset="0.458233" stop-color="#F2F2F2"/>
<stop offset="0.458333" stop-color="white"/>
</linearGradient>
</defs>
</svg>
