<svg xmlns="http://www.w3.org/2000/svg" xmlns:xlink="http://www.w3.org/1999/xlink"
    style="margin:auto;background:#ffffff;display:block;z-index:1;position:relative" width="1920" height="947"
    preserveAspectRatio="xMidYMid" viewBox="0 0 1920 947">
    <g transform="translate(960,473.5) scale(1,1) translate(-960,-473.5)">
        <path id="path0" d="M 934.3194653998302 21.821439706285997
c 0 20.71760513525994 -5.069201256499773 5.950801475021473 -11.020002731521245 5.950801475021473
S 912.2794599367877 42.53904484154594 912.2794599367877 21.821439706285997
s 5.069201256499773 -5.950801475021473 11.020002731521245 -5.950801475021473
S 934.3194653998302 1.1038345710260558 934.3194653998302 21.821439706285997
z" fill="none" stroke="none"></path>
        <circle cx="0" cy="0" r="4.492169594960686" fill="#de9dd6">
            <animateMotion begin="-12.152317752010596s" dur="13.15s" repeatCount="indefinite">
                <mpath xlink:href="#path0"></mpath>
            </animateMotion>
        </circle>
        <path id="path1" d="M 89.68163979395533 311.66842676050766
c 0 21.404512385958604 -5.237274307202636 6.148104621498748 -11.385378928701384 6.148104621498748
S 66.91088193655256 333.07293914646624 66.91088193655256 311.66842676050766
s 5.237274307202636 -6.148104621498748 11.385378928701384 -6.148104621498748
S 89.68163979395533 290.2639143745491 89.68163979395533 311.66842676050766
z" fill="none" stroke="none"></path>
        <circle cx="0" cy="0" r="6.670710875092768" fill="#9df871">
            <animateMotion begin="-6.4935444792204375s" dur="13.15s" repeatCount="indefinite">
                <mpath xlink:href="#path1"></mpath>
            </animateMotion>
        </circle>
        <path id="path2" d="M 1913.5752150603028 896.2792043329404
c 0 22.6226872260802 -5.535338363828133 6.498005905363462 -12.033344269191595 6.498005905363462
S 1889.5085265219197 918.9018915590206 1889.5085265219197 896.2792043329404
s 5.535338363828133 -6.498005905363462 12.033344269191595 -6.498005905363462
S 1913.5752150603028 873.6565171068602 1913.5752150603028 896.2792043329404
z" fill="none" stroke="none"></path>
        <circle cx="0" cy="0" r="8.213252953176493" fill="#9df871">
            <animateMotion begin="-9.58954549026651s" dur="13.15s" repeatCount="indefinite">
                <mpath xlink:href="#path2"></mpath>
            </animateMotion>
        </circle>
        <path id="path3" d="M 835.0228736465692 651.9726501797531
c 0 20.3328430757638 -4.975057348325185 5.840284713251305 -10.815342061576489 5.840284713251305
S 813.3921895234162 672.3054932555169 813.3921895234162 651.9726501797531
s 4.975057348325185 -5.840284713251305 10.815342061576489 -5.840284713251305
S 835.0228736465692 631.6398071039894 835.0228736465692 651.9726501797531
z" fill="none" stroke="none"></path>
        <circle cx="0" cy="0" r="5.950530382144686" fill="#de9dd6">
            <animateMotion begin="-2.272421078418087s" dur="13.15s" repeatCount="indefinite">
                <mpath xlink:href="#path3"></mpath>
            </animateMotion>
        </circle>
        <path id="path4" d="M 1475.9527969364485 802.4400991117826
c 0 29.36862526970507 -7.185940225566133 8.4356689604472 -15.621609186013334 8.4356689604472
S 1444.709578564422 831.8087243814877 1444.709578564422 802.4400991117826
s 7.185940225566133 -8.4356689604472 15.621609186013334 -8.4356689604472
S 1475.9527969364485 773.0714738420776 1475.9527969364485 802.4400991117826
z" fill="none" stroke="none"></path>
        <circle cx="0" cy="0" r="4.973813651722332" fill="#e0ff77">
            <animateMotion begin="-4.9958359655827955s" dur="13.15s" repeatCount="indefinite">
                <mpath xlink:href="#path4"></mpath>
            </animateMotion>
        </circle>
        <path id="path5" d="M 693.0965862675117 857.7353632279782
c 0 33.949505508652436 -8.306793901053256 9.751453709932083 -18.05824761098534 9.751453709932083
S 656.9800910455411 891.6848687366306 656.9800910455411 857.7353632279782
s 8.306793901053256 -9.751453709932083 18.05824761098534 -9.751453709932083
S 693.0965862675117 823.7858577193257 693.0965862675117 857.7353632279782
z" fill="none" stroke="none"></path>
        <circle cx="0" cy="0" r="7.888617458211046" fill="#9df871">
            <animateMotion begin="-7.9444214516389655s" dur="13.15s" repeatCount="indefinite">
                <mpath xlink:href="#path5"></mpath>
            </animateMotion>
        </circle>
        <path id="path6" d="M 1208.2675622636561 425.7485324149774
c 0 19.08662886067342 -4.670132593569028 5.482329566363643 -10.152462159932671 5.482329566363643
S 1187.962637943791 444.8351612756508 1187.962637943791 425.7485324149774
s 4.670132593569028 -5.482329566363643 10.152462159932671 -5.482329566363643
S 1208.2675622636561 406.66190355430393 1208.2675622636561 425.7485324149774
z" fill="none" stroke="none"></path>
        <circle cx="0" cy="0" r="5.952105978606689" fill="#de9dd6">
            <animateMotion begin="-2.6622851901447726s" dur="13.15s" repeatCount="indefinite">
                <mpath xlink:href="#path6"></mpath>
            </animateMotion>
        </circle>
        <path id="path7" d="M 570.2539285662967 25.16143691618302
c 0 28.772013146063145 -7.039960663398428 8.264301648337286 -15.304262311735714 8.264301648337286
S 539.6454039428254 53.933450062246166 539.6454039428254 25.16143691618302
s 7.039960663398428 -8.264301648337286 15.304262311735714 -8.264301648337286
S 570.2539285662967 -3.610576229880124 570.2539285662967 25.16143691618302
z" fill="none" stroke="none"></path>
        <circle cx="0" cy="0" r="8.350883468171796" fill="#ff708e">
            <animateMotion begin="-11.308903884979173s" dur="13.15s" repeatCount="indefinite">
                <mpath xlink:href="#path7"></mpath>
            </animateMotion>
        </circle>
        <path id="path8" d="M 765.6002689851992 470.26929012275843
c 0 25.048725192060022 -6.128943398057239 7.194846597719368 -13.323789995776607 7.194846597719368
S 738.9526889936461 495.31801531481847 738.9526889936461 470.26929012275843
s 6.128943398057239 -7.194846597719368 13.323789995776607 -7.194846597719368
S 765.6002689851992 445.2205649306984 765.6002689851992 470.26929012275843
z" fill="none" stroke="none"></path>
        <circle cx="0" cy="0" r="7.896310050557432" fill="#ff708e">
            <animateMotion begin="-6.927916807712028s" dur="13.15s" repeatCount="indefinite">
                <mpath xlink:href="#path8"></mpath>
            </animateMotion>
        </circle>
        <path id="path9" d="M 1451.4711595529436 924.6420121597267
c 0 26.384794087554084 -6.455853872486637 7.578611067701705 -14.034464940188343 7.578611067701705
S 1423.4022296725668 951.0268062472808 1423.4022296725668 924.6420121597267
s 6.455853872486637 -7.578611067701705 14.034464940188343 -7.578611067701705
S 1451.4711595529436 898.2572180721727 1451.4711595529436 924.6420121597267
z" fill="none" stroke="none"></path>
        <circle cx="0" cy="0" r="4.494616012273416" fill="#ff708e">
            <animateMotion begin="-12.609703489688433s" dur="13.15s" repeatCount="indefinite">
                <mpath xlink:href="#path9"></mpath>
            </animateMotion>
        </circle>
        <path id="path10" d="M 1303.349650376234 833.8478897166749
c 0 21.711472266875475 -5.312381512107828 6.236273948996147 -11.548655461103976 6.236273948996147
S 1280.2523394540258 855.5593619835504 1280.2523394540258 833.8478897166749
s 5.312381512107828 -6.236273948996147 11.548655461103976 -6.236273948996147
S 1303.349650376234 812.1364174497994 1303.349650376234 833.8478897166749
z" fill="none" stroke="none"></path>
        <circle cx="0" cy="0" r="4.516992217734678" fill="#51cacc">
            <animateMotion begin="-4.275910960955706s" dur="13.15s" repeatCount="indefinite">
                <mpath xlink:href="#path10"></mpath>
            </animateMotion>
        </circle>
        <path id="path11" d="M 1009.6714328471668 170.4239086860799
c 0 31.862001432453127 -7.796021627089594 9.15185147527909 -16.947873102368685 9.15185147527909
S 975.7756866424294 202.28591011853302 975.7756866424294 170.4239086860799
s 7.796021627089594 -9.15185147527909 16.947873102368685 -9.15185147527909
S 1009.6714328471668 138.56190725362677 1009.6714328471668 170.4239086860799
z" fill="none" stroke="none"></path>
        <circle cx="0" cy="0" r="8.432245050468198" fill="#51cacc">
            <animateMotion begin="-11.309649891060124s" dur="13.15s" repeatCount="indefinite">
                <mpath xlink:href="#path11"></mpath>
            </animateMotion>
        </circle>
        <path id="path12" d="M 434.5899944534818 678.4975184757686
c 0 33.5945753124648 -8.219949278581812 9.64950567485691 -17.869454953438723 9.64950567485691
S 398.85108454660434 712.0920937882335 398.85108454660434 678.4975184757686
s 8.219949278581812 -9.64950567485691 17.869454953438723 -9.64950567485691
S 434.5899944534818 644.9029431633038 434.5899944534818 678.4975184757686
z" fill="none" stroke="none"></path>
        <circle cx="0" cy="0" r="5.211569575093314" fill="#ff708e">
            <animateMotion begin="-6.428300569304763s" dur="13.15s" repeatCount="indefinite">
                <mpath xlink:href="#path12"></mpath>
            </animateMotion>
        </circle>
        <path id="path13" d="M 915.058530136754 69.73108788046558
c 0 30.274145438808816 -7.407503671197901 8.69576517923232 -16.103268850430222 8.69576517923232
S 882.8519924358935 100.0052333192744 882.8519924358935 69.73108788046558
s 7.407503671197901 -8.69576517923232 16.103268850430222 -8.69576517923232
S 915.058530136754 39.456942441656764 915.058530136754 69.73108788046558
z" fill="none" stroke="none"></path>
        <circle cx="0" cy="0" r="6.356403427500405" fill="#51cacc">
            <animateMotion begin="-6.17039266458232s" dur="13.15s" repeatCount="indefinite">
                <mpath xlink:href="#path13"></mpath>
            </animateMotion>
        </circle>
        <path id="path14" d="M 1823.21422489801 571.9832773843278
c 0 27.48314669252096 -6.724599722638107 7.8940953265751705 -14.618695049213278 7.8940953265751705
S 1793.9768347995832 599.4664240768489 1793.9768347995832 571.9832773843278
s 6.724599722638107 -7.8940953265751705 14.618695049213278 -7.8940953265751705
S 1823.21422489801 544.5001306918068 1823.21422489801 571.9832773843278
z" fill="none" stroke="none"></path>
        <circle cx="0" cy="0" r="8.430665117248262" fill="#e0ff77">
            <animateMotion begin="-10.288480983412102s" dur="13.15s" repeatCount="indefinite">
                <mpath xlink:href="#path14"></mpath>
            </animateMotion>
        </circle>
        <path id="path15" d="M 672.2036658800092 434.14689643034217
c 0 30.20235969376194 -7.38993907400558 8.675145869484814 -16.065084943490394 8.675145869484814
S 640.0734959930284 464.3492561241041 640.0734959930284 434.14689643034217
s 7.38993907400558 -8.675145869484814 16.065084943490394 -8.675145869484814
S 672.2036658800092 403.94453673658023 672.2036658800092 434.14689643034217
z" fill="none" stroke="none"></path>
        <circle cx="0" cy="0" r="5.032493971523329" fill="#9df871">
            <animateMotion begin="-10.734285802488385s" dur="13.15s" repeatCount="indefinite">
                <mpath xlink:href="#path15"></mpath>
            </animateMotion>
        </circle>
        <path id="path16" d="M 1857.1677684518704 149.18976507507577
c 0 19.10124490140239 -4.673708858853775 5.4865277908283465 -10.160236649682123 5.4865277908283465
S 1836.8472951525064 168.29100997647816 1836.8472951525064 149.18976507507577
s 4.673708858853775 -5.4865277908283465 10.160236649682123 -5.4865277908283465
S 1857.1677684518704 130.08852017367337 1857.1677684518704 149.18976507507577
z" fill="none" stroke="none"></path>
        <circle cx="0" cy="0" r="8.186107068942784" fill="#ff708e">
            <animateMotion begin="-12.61280804295595s" dur="13.15s" repeatCount="indefinite">
                <mpath xlink:href="#path16"></mpath>
            </animateMotion>
        </circle>
        <path id="path17" d="M 1753.2747464975919 756.0390656463735
c 0 21.48734449202556 -5.2575417374105085 6.171896822177555 -11.429438559588064 6.171896822177555
S 1730.4158693784157 777.5264101383991 1730.4158693784157 756.0390656463735
s 5.2575417374105085 -6.171896822177555 11.429438559588064 -6.171896822177555
S 1753.2747464975919 734.5517211543479 1753.2747464975919 756.0390656463735
z" fill="none" stroke="none"></path>
        <circle cx="0" cy="0" r="5.862161615298564" fill="#e0ff77">
            <animateMotion begin="-8.849619792519663s" dur="13.15s" repeatCount="indefinite">
                <mpath xlink:href="#path17"></mpath>
            </animateMotion>
        </circle>
        <path id="path18" d="M 187.38554443310062 910.5602794169581
c 0 35.791624129681054 -8.757525053007065 10.280572888312644 -19.03809794131971 10.280572888312644
S 149.3093485504612 946.3519035466392 149.3093485504612 910.5602794169581
s 8.757525053007065 -10.280572888312644 19.03809794131971 -10.280572888312644
S 187.38554443310062 874.768655287277 187.38554443310062 910.5602794169581
z" fill="none" stroke="none"></path>
        <circle cx="0" cy="0" r="7.674485484165887" fill="#e0ff77">
            <animateMotion begin="-6.749247496881424s" dur="13.15s" repeatCount="indefinite">
                <mpath xlink:href="#path18"></mpath>
            </animateMotion>
        </circle>
        <path id="path19" d="M 1447.1820260899792 579.575071674573
c 0 24.31870853324683 -5.950322300688054 6.985160961677281 -12.935483262365334 6.985160961677281
S 1421.3110595652486 603.8937802078199 1421.3110595652486 579.575071674573
s 5.950322300688054 -6.985160961677281 12.935483262365334 -6.985160961677281
S 1447.1820260899792 555.2563631413261 1447.1820260899792 579.575071674573
z" fill="none" stroke="none"></path>
        <circle cx="0" cy="0" r="5.561372894985648" fill="#51cacc">
            <animateMotion begin="-9.23505715314316s" dur="13.15s" repeatCount="indefinite">
                <mpath xlink:href="#path19"></mpath>
            </animateMotion>
        </circle>
        <path id="path20" d="M 1689.2562514986405 490.52983323500365
c 0 23.688348231698836 -5.7960852056284375 6.804100023998601 -12.600185229627039 6.804100023998601
S 1664.0558810393866 514.2181814667025 1664.0558810393866 490.52983323500365
s 5.7960852056284375 -6.804100023998601 12.600185229627039 -6.804100023998601
S 1689.2562514986405 466.8414850033048 1689.2562514986405 490.52983323500365
z" fill="none" stroke="none"></path>
        <circle cx="0" cy="0" r="6.9495812423674534" fill="#51cacc">
            <animateMotion begin="-1.6294166010770847s" dur="13.15s" repeatCount="indefinite">
                <mpath xlink:href="#path20"></mpath>
            </animateMotion>
        </circle>
        <path id="path21" d="M 1425.3249159750374 164.93033840162883
c 0 20.150229405254247 -4.9303752800090175 5.787831850445369 -10.718207130454386 5.787831850445369
S 1403.8885017141286 185.08056780688307 1403.8885017141286 164.93033840162883
s 4.9303752800090175 -5.787831850445369 10.718207130454386 -5.787831850445369
S 1425.3249159750374 144.7801089963746 1425.3249159750374 164.93033840162883
z" fill="none" stroke="none"></path>
        <circle cx="0" cy="0" r="6.201217140643698" fill="#de9dd6">
            <animateMotion begin="-5.849479084773119s" dur="13.15s" repeatCount="indefinite">
                <mpath xlink:href="#path21"></mpath>
            </animateMotion>
        </circle>
        <path id="path22" d="M 451.40860234795855 360.35748376396884
c 0 20.99618060611411 -5.137363339793877 6.030817833671073 -11.168181173464951 6.030817833671073
S 429.0722400010286 381.3536643700829 429.0722400010286 360.35748376396884
s 5.137363339793877 -6.030817833671073 11.168181173464951 -6.030817833671073
S 451.40860234795855 339.36130315785476 451.40860234795855 360.35748376396884
z" fill="none" stroke="none"></path>
        <circle cx="0" cy="0" r="8.447541669332594" fill="#ff708e">
            <animateMotion begin="-9.007300849599117s" dur="13.15s" repeatCount="indefinite">
                <mpath xlink:href="#path22"></mpath>
            </animateMotion>
        </circle>
        <path id="path23" d="M 1305.7548113107914 116.29326760864721
c 0 32.614069870395454 -7.980038372543568 9.367871132985929 -17.347909505529497 9.367871132985929
S 1271.0589922997324 148.90733747904267 1271.0589922997324 116.29326760864721
s 7.980038372543568 -9.367871132985929 17.347909505529497 -9.367871132985929
S 1305.7548113107914 83.67919773825176 1305.7548113107914 116.29326760864721
z" fill="none" stroke="none"></path>
        <circle cx="0" cy="0" r="4.424857879384745" fill="#9df871">
            <animateMotion begin="-10.641727564676593s" dur="13.15s" repeatCount="indefinite">
                <mpath xlink:href="#path23"></mpath>
            </animateMotion>
        </circle>
        <path id="path24" d="M 868.6840667666887 505.60363846967823
c 0 26.912337599537032 -6.584933667971827 7.7301395232712755 -14.315073191243101 7.7301395232712755
S 840.0539203842026 532.5159760692153 840.0539203842026 505.60363846967823
s 6.584933667971827 -7.7301395232712755 14.315073191243101 -7.7301395232712755
S 868.6840667666887 478.6913008701412 868.6840667666887 505.60363846967823
z" fill="none" stroke="none"></path>
        <circle cx="0" cy="0" r="6.544544104034735" fill="#e0ff77">
            <animateMotion begin="-4.441359723907667s" dur="13.15s" repeatCount="indefinite">
                <mpath xlink:href="#path24"></mpath>
            </animateMotion>
        </circle>
    </g>
</svg>